<svg height="420pt" viewBox="-15 0 420 420.97024" width="420pt" xmlns="http://www.w3.org/2000/svg"><path d="m227.359375 345.269531h-148.179687c-18.699219-.023437-33.941407-15.003906-34.285157-33.703125l35.1875-198.675781h-13.246093c-6.730469-.03125-12.464844 4.875-13.480469 11.527344-.007813.046875-.015625.089843-.023438.136719l-38.441406 217.007812c.34375 18.699219 15.585937 33.679688 34.285156 33.703125h201.09375l-8.179687-8.714844c-5.980469-6.292969-10.949219-13.472656-14.730469-21.28125zm0 0" fill="#d4e1f4"/><path d="m368.148438 281.820312c-12.828126-13.84375-30.015626-22.867187-48.691407-25.570312l-23.621093-133.339844c-2.085938-13.445312-13.691407-23.34375-27.296876-23.289062h-202.101562c-13.605469-.058594-25.210938 9.84375-27.300781 23.289062l-38.542969 217.578125c-.074219.40625-.109375.8125-.109375 1.222657.03125 26.65625 21.632813 48.257812 48.292969 48.289062h194.167968c18.960938 23.625 49.3125 35.007812 79.132813 29.679688 29.824219-5.332032 54.351563-26.527344 63.953125-55.257813 9.597656-28.730469 2.738281-60.414063-17.886719-82.601563zm-353.660157 60.476563 38.441407-217.011719c.007812-.042968.015624-.089844.023437-.132812 1.015625-6.652344 6.75-11.558594 13.480469-11.53125h202.097656c6.730469-.027344 12.46875 4.878906 13.480469 11.53125.007812.042968.015625.089844.023437.132812l23.054688 130.144532c-28.410156.828124-54.410156 16.167968-68.875 40.636718-14.460938 24.46875-15.367188 54.644532-2.398438 79.933594h-185.035156c-18.703125-.019531-33.949219-15.003906-34.292969-33.703125zm293 64.652344c-21.890625-.050781-42.46875-10.46875-55.460937-28.09375-15.328125-20.902344-17.605469-48.648438-5.894532-71.769531 11.714844-23.125 35.429688-37.703126 61.351563-37.710938 1.808594 0 3.640625.070312 5.441406.210938 36.816407 2.921874 64.753907 34.394531 63.292969 71.296874-1.460938 36.902344-31.800781 66.066407-68.734375 66.070313zm0 0" fill="#0069ff"/><g fill="#120078"><path d="m167.484375 0c-41.53125.046875-75.1875 33.703125-75.234375 75.234375v76.421875c0 3.867188 3.136719 7 7 7 3.867188 0 7-3.132812 7-7v-76.421875c0-33.820313 27.417969-61.234375 61.234375-61.234375 33.820313 0 61.234375 27.414062 61.234375 61.234375v76.421875c0 3.867188 3.132812 7 7 7s7-3.132812 7-7v-76.421875c-.046875-41.53125-33.703125-75.1875-75.234375-75.234375zm0 0"/><path d="m343 311.351562-45.410156 43.375-23.730469-23.730468c-2.734375-2.730469-7.167969-2.730469-9.902344 0-2.734375 2.734375-2.734375 7.167968 0 9.902344l28.566407 28.566406c2.691406 2.6875 7.035156 2.738281 9.785156.109375l50.363281-48.101563c1.835937-1.71875 2.605469-4.292968 2.015625-6.738281-.585938-2.449219-2.441406-4.390625-4.859375-5.089844s-5.023437-.046875-6.828125 1.707031zm0 0"/></g></svg>
