<svg xmlns="http://www.w3.org/2000/svg" width="41" height="41" viewBox="0 0 41 41" aria-hidden="true" class="www-Icon www-Icon--xlarge"><defs><linearGradient x1=".041%" y1="49.915%" x2="99.959%" y2="49.915%" id="a"><stop stop-color="#444" stop-opacity=".4" offset="0%"></stop><stop stop-color="#444" stop-opacity="0" offset="100%"></stop></linearGradient></defs><g fill-rule="nonzero" fill="none"><path d="M7.1 8.3c.4 0 .8-.1 1.1-.4.3-.3.5-.6.5-1.1 0-.4-.1-.8-.4-1.1-.2-.3-.6-.4-1-.5h-.1c-.8 0-1.5.6-1.5 1.4 0 .4.1.8.4 1.1.2.4.6.6 1 .6zM2.9 14.5c.9.1 1.6-.6 1.6-1.4 0-.4-.1-.8-.4-1.1-.3-.3-.6-.5-1.1-.5h-.1c-.8 0-1.5.6-1.5 1.4 0 .4.1.8.4 1.1.3.3.7.5 1.1.5zM3.1 20.4c0-.4-.1-.8-.4-1.1-.3-.3-.6-.5-1.1-.5h-.1c-.4 0-.7.1-1 .4-.3.2-.5.6-.5 1s.1.8.4 1.1c.3.3.6.5 1.1.5.8 0 1.5-.6 1.6-1.4zM3.1 26.1H3c-.4 0-.7.1-1 .4-.3.3-.5.6-.5 1.1 0 .4.1.8.4 1.1.3.3.6.5 1.1.5.4 0 .8-.1 1.1-.4.3-.3.5-.6.5-1.1 0-.8-.6-1.6-1.5-1.6zM7.4 32.4h-.1c-.8 0-1.5.6-1.5 1.4 0 .4.1.8.4 1.1.3.3.6.5 1.1.5.4 0 .8-.1 1.1-.4.3-.3.5-.6.5-1.1 0-.4-.1-.8-.4-1.1-.4-.2-.7-.4-1.1-.4zM13.6 36.4h-.1c-.4 0-.7.1-1 .4-.3.3-.5.6-.5 1.1 0 .4.1.8.4 1.1.3.3.6.5 1.1.5.4 0 .8-.1 1.1-.4.3-.3.5-.6.5-1.1 0-.4-.1-.8-.4-1.1-.3-.3-.7-.5-1.1-.5z" fill="#444"></path><circle fill="#444" cx="27.4" cy="29.5" r="1.5"></circle><circle fill="#444" cx="31.5" cy="23.8" r="1.5"></circle><circle fill="#444" cx="31.6" cy="16.9" r="1.5"></circle><circle fill="#444" cx="27.4" cy="11" r="1.5"></circle><path d="M13.4 4.1c.9 0 1.6-.6 1.6-1.4.1-.8-.6-1.6-1.4-1.6h-.1c-.4 0-.7.1-1 .4-.3.2-.5.6-.5 1s.1.8.4 1.1c.2.3.6.5 1 .5z" fill="#444"></path><path d="M20.3 32.9v-2.6c-5.4-.2-9.7-4.6-9.7-10.1s4.3-9.9 9.7-10.1V7.5C13.5 7.7 8 13.3 8 20.2c0 6.9 5.5 12.5 12.3 12.7zM21 0v2.6c9.6.2 17.4 8.1 17.4 17.7S30.6 37.9 21 38.1v2.6c11.1-.2 20-9.3 20-20.4C41 9.2 32.1.2 21 0z" fill="#444"></path><circle fill="url(#a)" cx="20.5" cy="20.4" r="11.7"></circle></g></svg>
