<svg height="414pt" viewBox="0 -30 414.00395 414" width="414pt" xmlns="http://www.w3.org/2000/svg"><path d="m363.734375 169.085938h-220.273437l-12.601563-94.46875h-34l16.601563 124.46875h220.273437c12.152344-.003907 22.96875-7.703126 26.953125-19.183594l3.757812-10.84375c-.238281.003906-.472656.027344-.710937.027344zm0 0" fill="#d4e1f4"/><g fill="#0069ff"><path fill="#120078" d="m218.726562 167.382812c2.730469 2.734376 7.164063 2.734376 9.898438 0l20.632812-20.632812 19.46875 19.46875c2.734376 2.734375 7.164063 2.734375 9.898438 0 2.734375-2.730469 2.734375-7.164062 0-9.898438l-19.46875-19.46875 19.46875-19.46875c2.734375-2.734374 2.734375-7.167968 0-9.902343-2.734375-2.730469-7.164062-2.730469-9.898438 0l-19.46875 19.472656-20.632812-20.632813c-2.734375-2.734374-7.167969-2.734374-9.898438 0-2.734374 2.734376-2.734374 7.164063 0 9.898438l20.628907 20.632812-20.628907 20.632813c-2.734374 2.734375-2.734374 7.164063 0 9.898437zm0 0"/><path d="m216 313.453125c-3.867188 0-7 3.132813-7 7 0 3.863281 3.132812 7 7 7h70.5c3.867188 0 7-3.136719 7-7 0-3.867187-3.132812-7-7-7zm0 0"/><path d="m7 14.003906h42.699219c14.019531-.058594 25.980469 10.128906 28.160156 23.980469l33.792969 253.425781c.007812.054688.015625.113282.023437.167969 3.195313 20.703125 21.050781 35.957031 42 35.875h11.324219c3.867188 0 7-3.136719 7-7 0-3.867187-3.132812-7-7-7h-11.328125c-14.019531.054687-25.980469-10.128906-28.160156-23.980469l-10.183594-76.382812h218.40625c18.117187-.007813 34.242187-11.484375 40.179687-28.597656l39.703126-114.578126c.742187-2.140624.40625-4.507812-.910157-6.355468-1.3125-1.847656-3.441406-2.945313-5.707031-2.941406h-312l-3.277344-24.574219c-.007812-.054688-.015625-.109375-.023437-.167969-3.195313-20.703125-21.050781-35.9570312-42-35.87109375h-42.699219c-3.867188 0-7 3.13281275-7 6.99999975 0 3.863282 3.132812 7 7 7zm390.167969 60.613282-36.480469 105.285156c-3.984375 11.480468-14.800781 19.179687-26.953125 19.183594h-220.273437l-16.601563-124.46875zm0 0"/></g><path d="m190.699219 353.746094c-17.457031 0-31.609375-14.152344-31.609375-31.613282-.003906-17.457031 14.152344-31.609374 31.609375-31.609374s31.609375 14.152343 31.609375 31.609374c-.019532 17.449219-14.160156 31.589844-31.609375 31.613282zm0-49.222656c-9.726563 0-17.609375 7.882812-17.609375 17.609374-.003906 9.726563 7.882812 17.609376 17.609375 17.613282 9.726562 0 17.609375-7.886719 17.609375-17.613282-.007813-9.722656-7.886719-17.597656-17.609375-17.609374zm0 0" fill="#120078"/><path d="m311.476562 353.746094c-17.457031 0-31.609374-14.15625-31.609374-31.613282 0-17.457031 14.152343-31.609374 31.609374-31.609374 17.460938 0 31.613282 14.152343 31.613282 31.609374-.019532 17.449219-14.160156 31.589844-31.613282 31.613282zm0-49.222656c-9.726562 0-17.609374 7.882812-17.609374 17.609374 0 9.726563 7.882812 17.613282 17.609374 17.613282 9.726563 0 17.613282-7.886719 17.613282-17.613282-.011719-9.722656-7.890625-17.597656-17.613282-17.609374zm0 0" fill="#120078"/></svg>
