<?xml version="1.0"?>
<svg xmlns="http://www.w3.org/2000/svg" xmlns:xlink="http://www.w3.org/1999/xlink" version="1.1" id="Capa_1" x="0px" y="0px" viewBox="0 0 466.134 466.134" style="enable-background:new 0 0 466.134 466.134;" xml:space="preserve" width="512px" height="512px" class=""><g><g>
	<polygon style="fill:#82B1FF" points="455.576,105.589 378.776,176.643 262.792,176.643 262.792,173.508 338.025,103.5    340.114,105.589  " data-original="#87E680" class="active-path" data-old_color="#82b1ff"/>
	<polygon style="fill:#82B1FF" points="190.694,105.589 192.261,107.157 120.686,173.508 120.686,176.643 10.449,176.643    87.249,105.589  " data-original="#87E680" class="active-path" data-old_color="#82b1ff"/>
</g><g>
	<path style="fill:#0069ff" d="M117.551,247.695H10.449C4.702,247.695,0,242.993,0,237.246c0-5.747,4.702-10.449,10.449-10.449   h107.102c5.747,0,10.449,4.702,10.449,10.449C128,242.993,123.298,247.695,117.551,247.695z" data-original="#083863" class="" data-old_color="#083863"/>
	<path style="fill:#0069ff" d="M378.776,247.695H264.359c-5.747,0-10.449-4.702-10.449-10.449c0-5.747,4.702-10.449,10.449-10.449   h110.759l74.188-58.514c4.702-3.657,10.971-2.612,14.629,2.09c3.657,4.702,2.612,10.971-2.09,14.629l-76.8,60.604   C382.955,246.651,380.865,247.695,378.776,247.695z" data-original="#083863" class="" data-old_color="#083863"/>
	<path style="fill:#0069ff" d="M117.551,308.822H10.449C4.702,308.822,0,304.12,0,298.373c0-5.747,4.702-10.449,10.449-10.449   h107.102c5.747,0,10.449,4.702,10.449,10.449C128,304.12,123.298,308.822,117.551,308.822z" data-original="#083863" class="" data-old_color="#083863"/>
	<path style="fill:#0069ff" d="M378.776,308.822H265.404c-5.747,0-10.449-4.702-10.449-10.449c0-5.747,4.702-10.449,10.449-10.449   h110.237l73.665-53.29c4.702-3.657,10.971-2.612,14.629,2.09s2.612,10.971-2.09,14.629l0,0l-76.8,55.38   C383.478,308.3,380.865,308.822,378.776,308.822z" data-original="#083863" class="" data-old_color="#083863"/>
	<path style="fill:#0069ff" d="M378.776,369.426H10.449C4.702,369.426,0,364.724,0,358.977s4.702-10.449,10.449-10.449h365.192   l74.188-48.588c4.702-3.135,11.494-1.567,14.629,3.135c3.135,4.702,1.567,11.494-3.135,14.629l0,0l-76.8,50.155   C382.955,368.904,380.865,369.426,378.776,369.426z" data-original="#083863" class="" data-old_color="#083863"/>
</g><polygon style="fill:#0069FF" points="350.563,96.708 343.249,103.5 268.016,173.508 268.016,176.643 268.016,353.753   268.016,369.426 115.461,369.426 115.461,353.753 115.461,176.643 115.461,173.508 187.037,107.157 198.008,96.708 " data-original="#3BB54A" class="" data-old_color="#0069ff"/><path style="fill:#FFFFFF" d="M233.535,222.618h-13.061c-1.045,0-2.612-5.224-5.224-10.449h18.286  c5.747,0,10.449-4.702,10.449-10.449c0-5.747-4.702-10.449-10.449-10.449H155.69c-5.747,0-10.449,4.702-10.449,10.449  c0,5.747,4.702,10.449,10.449,10.449h22.465c7.837,0.522,15.673,4.18,20.375,10.449H155.69c-5.747,0-10.449,4.702-10.449,10.449  c0,5.747,4.702,10.449,10.449,10.449h42.841c-0.522,3.135-1.567,5.747-4.18,7.314c-4.18,4.702-9.926,7.314-16.196,8.359H155.69  c-4.18-0.522-8.359,2.09-9.926,6.269c-1.567,3.657-0.522,8.359,2.612,10.971l55.902,53.29c2.09,1.567,4.702,2.612,7.314,2.612  s5.224-1.045,7.314-3.135c3.657-4.18,3.657-10.971-0.522-15.151l-36.571-35.004c10.449-1.045,19.853-5.747,27.167-13.584  c6.269-5.747,10.449-13.584,11.494-21.943h13.061c5.747,0,10.449-4.702,10.449-10.449  C243.984,227.32,239.282,222.618,233.535,222.618z" data-original="#FEDB41" class="" data-old_color="#ffffff"/></g> </svg>
