<svg xmlns="http://www.w3.org/2000/svg"  viewBox="0 0 41 41" aria-hidden="true" class="www-Icon www-Icon--xlarge"><defs><linearGradient x1="10.174%" y1="101.226%" x2="85.901%" y2="32.035%" id="a"><stop stop-color="#0069FF" stop-opacity=".3" offset="0%"></stop><stop stop-color="#0069FF" stop-opacity="0" offset="100%"></stop></linearGradient></defs><g fill="none" fill-rule="evenodd"><path d="M29.107 26.73H26.92v-9.608c0-6.183-4.852-11.51-11.035-11.7-6.278 0-11.51 5.041-11.51 11.32v9.987H2.284C1.046 26.73 0 27.776 0 29.012v1.332c0 1.236 1.046 2.283 2.283 2.283h26.92c1.236 0 2.282-1.047 2.282-2.283v-1.332c-.095-1.236-1.141-2.283-2.378-2.283z" fill="url(#a)" fill-rule="nonzero" transform="translate(4.75 1)"></path><g opacity=".4" fill="#0069FF" fill-rule="nonzero"><path d="M32.05 1.666L30.433 1 28.91 4.615c.57.285 1.046.665 1.522 1.046l1.617-3.995zM40.135 14.412l-4.375-.19c.095.57.285 1.141.285 1.807l3.995.095.095-1.712zM38.138 7.659l-.951-1.522-3.9 2.568c.38.475.665.951.95 1.522l3.9-2.568z"></path></g><g stroke-width="2"><path d="M17.591 6.802V4.805c0-1.522 1.237-2.854 2.854-2.854 1.522 0 2.854 1.237 2.854 2.854v1.997M24.82 33.722v1.046c0 2.378-1.997 4.376-4.375 4.376s-4.375-1.998-4.375-4.376v-1.046" stroke="#0069FF"></path><path d="M25.201 27.73H6.843a2.111 2.111 0 0 0-2.093 2.092v1.617c0 1.141.951 2.093 2.093 2.093h27.11a2.111 2.111 0 0 0 2.092-2.093v-1.617a2.111 2.111 0 0 0-2.093-2.093H31.765v-9.988c0-6.278-5.042-11.319-11.32-11.319a11.286 11.286 0 0 0-11.32 11.32V28.11" stroke="#120078"></path></g></g></svg>
