<?xml version="1.0" encoding="iso-8859-1"?>
<!-- Generator: Adobe Illustrator 19.0.0, SVG Export Plug-In . SVG Version: 6.00 Build 0)  -->
<svg version="1.1" id="Capa_1" xmlns="http://www.w3.org/2000/svg" xmlns:xlink="http://www.w3.org/1999/xlink" x="0px" y="0px"
	 viewBox="0 0 368 368" style="enable-background:new 0 0 368 368;" xml:space="preserve">
<polygon style="fill:#CCE4FF;" points="280,104 280,232 184,296 88,232 88,104 40,120 40,264 184,360 328,264 328,120 "/>
<path style="fill:#007AFF;" d="M336,264V56c0-3.448-2.2-6.504-5.472-7.592l-144-48c-1.64-0.544-3.424-0.544-5.064,0l-144,48
	C34.2,49.504,32,52.552,32,56v208c0,2.672,1.336,5.168,3.56,6.656l144,96c1.344,0.896,2.896,1.344,4.44,1.344
	s3.096-0.448,4.44-1.344l144-96C334.664,269.168,336,266.672,336,264z M184,80.432l88,29.336V227.72l-88,58.664L96,227.72V109.768
	L184,80.432z M48,61.768l128-42.664V66.24L48,108.904V61.768z M320,259.72l-136,90.664L48,259.72V125.768l32-10.664V232
	c0,2.672,1.336,5.168,3.56,6.656l96,64c1.344,0.896,2.896,1.344,4.44,1.344s3.096-0.448,4.44-1.344l96-64
	c2.224-1.488,3.56-3.984,3.56-6.656V115.104l32,10.664V259.72z M320,108.896L192,66.232V19.096L320,61.76V108.896z"/>
<g>
</g>
<g>
</g>
<g>
</g>
<g>
</g>
<g>
</g>
<g>
</g>
<g>
</g>
<g>
</g>
<g>
</g>
<g>
</g>
<g>
</g>
<g>
</g>
<g>
</g>
<g>
</g>
<g>
</g>
</svg>
