<?xml version="1.0"?>
<svg xmlns="http://www.w3.org/2000/svg" xmlns:xlink="http://www.w3.org/1999/xlink" version="1.1" id="Capa_1" x="0px" y="0px" viewBox="0 0 512 512" style="enable-background:new 0 0 512 512;" xml:space="preserve" width="512px" height="512px" class=""><g><path style="fill:#0069FF" d="M449.311,99.649L294.69,10.339c-23.865-13.785-53.514-13.785-77.379,0L62.69,99.649  C38.825,113.432,24,139.121,24,166.691V345.31c0,27.57,14.825,53.259,38.69,67.042l154.621,89.311  C229.243,508.554,242.621,512,256,512s26.757-3.446,38.69-10.338l154.62-89.311C473.175,398.568,488,372.88,488,345.31V166.691  C488,139.121,473.175,113.432,449.311,99.649z" data-original="#FFF16C" class="" data-old_color="#0069ff"/><path style="fill:#1633FF" d="M449.311,99.649L294.69,10.339C282.757,3.446,269.379,0,256,0v512  c13.379,0,26.757-3.446,38.69-10.338l154.62-89.311C473.175,398.568,488,372.88,488,345.31V166.691  C488,139.121,473.175,113.432,449.311,99.649z" data-original="#FDB92C" class="" data-old_color="#1633ff"/><path style="fill:#FFFFFF" d="M370.915,357.405l-19.254-180c-0.815-7.623-7.249-13.404-14.915-13.404H175.254  c-7.667,0-14.1,5.781-14.915,13.404l-19.254,180c-0.453,4.232,0.914,8.457,3.759,11.622c2.845,3.166,6.9,4.974,11.156,4.974h200  c4.256,0,8.312-1.808,11.156-4.974C370.001,365.862,371.368,361.637,370.915,357.405z" data-original="#F95065" class="" data-old_color="#ffffff"/><path style="fill:#FFFFFF" d="M370.915,357.405l-19.254-180c-0.815-7.623-7.249-13.404-14.915-13.404H256v210h100  c4.256,0,8.312-1.808,11.156-4.974C370.001,365.862,371.368,361.637,370.915,357.405z" data-original="#E83856" class="" data-old_color="#ffffff"/><path style="fill:#5A6060" d="M296,224c-8.284,0-15-6.716-15-15v-40c0-13.785-11.215-25-25-25s-25,11.215-25,25v40  c0,8.284-6.716,15-15,15s-15-6.716-15-15v-40c0-30.327,24.673-55,55-55s55,24.673,55,55v40C311,217.284,304.284,224,296,224z" data-original="#5A6060" class="active-path" data-old_color="#120078"/><path style="fill:#424545" d="M256,114v30c13.785,0,25,11.215,25,25v40c0,8.284,6.716,15,15,15s15-6.716,15-15v-40  C311,138.673,286.327,114,256,114z" data-original="#424545" class="" data-old_color="#1633ff"/></g> </svg>
