<svg height="404pt" viewBox="-45 0 404 404.776" width="404pt" xmlns="http://www.w3.org/2000/svg"><path d="m37.386719 370.777344c-1.65625 0-3-1.34375-3-3v-28.917969h-17c-1.65625 0-3 1.339844-3 3v45.917969c0 1.65625 1.34375 3 3 3h150.753906c1.65625 0 3-1.34375 3-3v-17zm0 0" fill="#d4e1f4"/><g fill="#120078"><path d="m33.597656 338.859375c-3.867187 0-7-3.136719-7-7v-153.011719c-.027344-10.164062 3.96875-19.929687 11.109375-27.164062.203125-.210938.421875-.40625.648438-.585938l86.121093-68.171875c1.960938-1.570312 4.609376-1.96875 6.945313-1.046875 2.335937.917969 4 3.019532 4.359375 5.503906.359375 2.484376-.636719 4.972657-2.617188 6.519532l-85.753906 67.886718c-4.386718 4.59375-6.828125 10.707032-6.8125 17.0625v153.007813c0 3.863281-3.136718 7-7 7zm0 0"/><path d="m157.488281 338.859375c-3.867187 0-7-3.136719-7-7v-23.046875c0-3.867188 3.132813-7 7-7 13.671875-.019531 24.75-11.097656 24.765625-24.769531v-24.238281c0-3.867188 3.136719-7 7-7 3.867188 0 7 3.132812 7 7v24.238281c-.023437 18.703125-13.375 34.730469-31.765625 38.136719v16.679687c0 3.863281-3.132812 7-7 7zm0 0"/><path d="m235.625 95.105469h-10.511719c-.785156-4.863281-2.667969-9.480469-5.5-13.511719h16.007813c3.867187 0 7-3.132812 7-7s-3.132813-7-7-7h-60c-3.867188 0-7 3.132812-7 7s3.132812 7 7 7h17.167968c8.328126.011719 15.652344 5.515625 17.984376 13.511719h-35.148438c-3.867188 0-7 3.132812-7 7 0 3.867187 3.132812 7 7 7h33.722656c-3.25 6.132812-9.617187 9.96875-16.554687 9.972656h-17.167969c-2.867188 0-5.445312 1.75-6.503906 4.414063-1.0625 2.664062-.386719 5.707031 1.695312 7.675781l42.914063 40.550781c2.808593 2.644531 7.234375 2.515625 9.882812-.292969 2.652344-2.804687 2.53125-7.226562-.269531-9.886719l-30.121094-28.464843c14.535156-.210938 27.199219-9.964844 31.109375-23.96875h11.292969c3.863281 0 7-3.132813 7-7 0-3.867188-3.136719-7-7-7zm0 0"/></g><path d="m168.140625 324.859375h-150.753906c-9.382813.007813-16.988281 7.613281-17 17v45.917969c.011719 9.382812 7.617187 16.988281 17 17h150.753906c9.382813-.011719 16.988281-7.617188 17-17v-45.917969c-.011719-9.386719-7.617187-16.992187-17-17zm3 62.917969c0 1.65625-1.34375 3-3 3h-150.753906c-1.65625 0-3-1.34375-3-3v-45.917969c0-1.660156 1.34375-3 3-3h150.753906c1.65625 0 3 1.339844 3 3zm0 0" fill="#0069ff"/><path d="m41.9375 346.300781c-7.847656-.164062-15.011719 4.4375-18.128906 11.640625-3.117188 7.203125-1.566406 15.578125 3.925781 21.183594s13.832031 7.332031 21.097656 4.367188c7.265625-2.964844 12.015625-10.03125 12.015625-17.882813.097656-10.546875-8.363281-19.183594-18.910156-19.308594zm0 24.621094c-2.1875.167969-4.253906-1.015625-5.207031-2.988281-.957031-1.972656-.605469-4.332032.882812-5.9375 1.488281-1.609375 3.808594-2.144532 5.851563-1.34375 2.039062.796875 3.382812 2.765625 3.382812 4.957031.101563 2.820313-2.09375 5.195313-4.910156 5.3125zm0 0" fill="#0069ff"/><path d="m298.566406 26.164062h-10.339844v-10.339843c-.011718-8.734375-7.089843-15.8125002-15.824218-15.824219h-134.101563c-8.734375.0117188-15.8125 7.089844-15.824219 15.824219v144.863281c0 3.867188 3.136719 7 7 7 3.867188 0 7-3.132812 7-7v-144.863281c.003907-1.007813.820313-1.824219 1.824219-1.824219h134.101563c1.007812 0 1.820312.816406 1.824218 1.824219v198.628906c-.003906 1.007813-.816406 1.824219-1.824218 1.828125h-142.921875c-3.867188 0-7 3.132812-7 7 0 3.863281 3.132812 7 7 7h20.035156v10.335938c.011719 8.734374 7.089844 15.8125 15.824219 15.824218h133.226562c8.734375-.011718 15.8125-7.089844 15.820313-15.824218v-198.628907c-.007813-8.734375-7.085938-15.816406-15.820313-15.824219zm1.820313 214.453126c0 1.007812-.816407 1.824218-1.820313 1.824218h-133.226562c-1.007813 0-1.824219-.816406-1.824219-1.824218v-10.335938h108.886719c8.734375-.011719 15.8125-7.089844 15.824218-15.828125v-174.289063h10.339844c1.003906 0 1.820313.816407 1.820313 1.824219zm0 0" fill="#0069ff"/><path d="m125.722656 299.925781c-3.867187 0-7-3.132812-7-7v-15.882812c0-1.382813.410156-2.734375 1.175782-3.882813 6.945312-10.484375 7.941406-23.820312 2.632812-35.21875-2.472656-5.148437-3.773438-10.78125-3.808594-16.492187 0-.132813.003906-.265625.011719-.402344l.425781-7.347656c.097656-1.714844.824219-3.332031 2.039063-4.546875l33.695312-33.699219c6.570313-6.570313 6.570313-17.222656 0-23.796875l-1.210937-1.207031-71.40625 56.546875c-3.03125 2.398437-7.433594 1.890625-9.832032-1.140625-2.402343-3.03125-1.890624-7.433594 1.140626-9.835938l76.296874-60.410156c2.785157-2.210937 6.785157-1.976563 9.296876.539063l5.617187 5.613281c12.042969 12.039062 12.042969 31.5625 0 43.601562l-31.808594 31.804688-.257812 4.46875c.066406 3.589843.910156 7.121093 2.476562 10.351562 7.046875 15.132813 6.117188 32.777344-2.480469 47.085938v13.851562c0 3.871094-3.136718 7.003907-7.003906 7zm0 0" fill="#120078"/><path d="m67.410156 161.789062 55.070313-43.59375v-15.835937l-75.070313 59.429687c-4.386718 4.59375-6.828125 10.707032-6.8125 17.0625v146.007813h20v-146.011719c-.015625-6.351562 2.425782-12.464844 6.8125-17.058594zm0 0" fill="#d4e1f4"/></svg>
