<svg height="439pt" viewBox="-12 0 439 439.54" width="439pt" xmlns="http://www.w3.org/2000/svg"><path d="m387.222656 408.769531h-319.90625c-22.089844 0-40-17.90625-40-40v-168.109375l-20-17.054687v205.164062c0 22.09375 17.910156 40 40 40h319.90625c15.722656 0 29.988282-9.214843 36.457032-23.542969-5.171876 2.339844-10.78125 3.546876-16.457032 3.542969zm0 0" fill="#fff"/><g fill="rgba(0,105,255,.3)"><path d="m228.039062 155.632812c3.867188 0 7-3.132812 7-7 0-3.867187-3.132812-7-7-7h-41.539062c-3.867188 0-7 3.132813-7 7 0 3.867188 3.132812 7 7 7h11.886719c3.5.046876 6.746093 1.828126 8.671875 4.75h-20.558594c-3.867188 0-7 3.136719-7 7 0 3.867188 3.132812 7 7 7h20.558594c-1.925782 2.925782-5.171875 4.703126-8.671875 4.753907h-11.886719c-2.835938 0-5.390625 1.707031-6.46875 4.328125-1.082031 2.621094-.476562 5.636718 1.535156 7.632812l29.703125 29.539063c2.75 2.679687 7.144531 2.644531 9.851563-.078125 2.707031-2.722656 2.714844-7.117188.019531-9.851563l-18.125-18.019531c9.363281-1.964844 16.8125-9.050781 19.25-18.300781h5.769531c3.867188 0 7-3.132813 7-7 0-3.867188-3.132812-7-7-7h-5.765625c-.445312-1.640625-1.050781-3.230469-1.804687-4.75zm0 0"/><path d="m282.960938 155.253906c-1.292969-1.972656-3.496094-3.160156-5.855469-3.160156s-4.558594 1.1875-5.851563 3.160156l-20.164062 30.746094c-1.410156 2.148438-1.527344 4.902344-.304688 7.164062 1.222656 2.261719 3.585938 3.671876 6.160156 3.671876h11.511719c-7.128906 31.941406-36.25 51.402343-61.316406 51.402343-18.550781 0-38.277344-10.570312-50.257813-26.929687-2.285156-3.117188-6.664062-3.796875-9.785156-1.511719-3.117187 2.285156-3.796875 6.667969-1.511718 9.785156 14.753906 20.140625 38.339843 32.65625 61.554687 32.65625 16.984375 0 34.8125-6.933593 48.90625-19.019531 13.953125-11.9375 23.375-28.320312 26.675781-46.386719h14.546875c2.574219 0 4.9375-1.410156 6.160157-3.671875 1.222656-2.261718 1.105468-5.015625-.304688-7.164062zm-13.054688 27.582032 7.199219-10.980469 7.199219 10.980469zm0 0"/><path d="m163.753906 166.375c-1.222656-2.261719-3.585937-3.671875-6.15625-3.671875h-11.515625c7.128907-31.9375 36.253907-51.398437 61.320313-51.398437 18.546875 0 38.273437 10.566406 50.253906 26.925781 2.285156 3.121093 6.667969 3.796875 9.789062 1.515625 3.121094-2.285156 3.796876-6.667969 1.511719-9.789063-14.753906-20.140625-38.335937-32.652343-61.550781-32.652343-16.984375 0-34.8125 6.929687-48.90625 19.015624-13.957031 11.941407-23.375 28.320313-26.679688 46.386719h-14.550781c-2.570312 0-4.9375 1.410157-6.160156 3.671875-1.21875 2.265625-1.101563 5.015625.304687 7.167969l20.164063 30.742187c1.296875 1.972657 3.496094 3.164063 5.855469 3.164063s4.558594-1.191406 5.851562-3.164063l20.164063-30.742187c1.414062-2.152344 1.53125-4.90625.304687-7.171875zm-26.320312 21.308594-7.199219-10.980469h14.398437zm0 0"/><path d="m246.679688 2.21875c-.019532-.019531-.039063-.027344-.058594-.046875-1.316406-1.390625-3.148438-2.17578125-5.0625-2.171875-.261719 0-.527344.0195312-.789063.0507812l-.121093-.0195312c-.238282-.0195312-.46875-.03125-.699219-.03125h-120.96875c-21.367188.0273438-38.683594 17.34375-38.710938 38.710938v189.660156l14 11.859375v-201.519531c.019531-13.640626 11.070313-24.691407 24.710938-24.710938h115.578125v47c.023437 21.371094 17.339844 38.691406 38.710937 38.710938h47v140.480468l14-11.871094v-135.789062c0-1.859375-.742187-3.640625-2.058593-4.953125zm26.589843 83.492188c-13.640625-.011719-24.699219-11.070313-24.710937-24.710938v-37.128906l61.960937 61.839844zm0 0"/></g><path d="m410.640625 169.261719-76.371094-64.660157v18.339844l62.171875 52.648438-62.171875 52.730468-14 11.871094-91.597656 77.6875c-12.292969 10.480469-30.371094 10.488282-42.671875.019532l-91.730469-77.667969-14-11.859375-62.167969-52.640625 62.167969-52.730469v-18.371094l-75.960937 64.429688c-2.460938 1.152344-4.035156 3.625-4.039063 6.339844v217.140624c.027344 25.949219 21.054688 46.972657 47 47h320c25.945313-.027343 46.972657-21.050781 47-47v-217.140624c.003907-2.554688-1.390625-4.90625-3.628906-6.136719zm-10.371094 223.277343c.007813 5.441407-1.339843 10.800782-3.917969 15.589844l-95.382812-97.039062c-2.710938-2.757813-7.144531-2.796875-9.902344-.085938-2.761718 2.710938-2.796875 7.148438-.085937 9.90625l96.230469 97.898438c-5.726563 4.375-12.734376 6.738281-19.941407 6.730468h-320c-7.222656.007813-14.246093-2.367187-19.980469-6.757812l95.699219-97.890625c2.574219-2.785156 2.464844-7.109375-.246093-9.757813-2.710938-2.648437-7.039063-2.660156-9.761719-.023437l-94.808594 96.96875c-2.570313-4.773437-3.910156-10.113281-3.902344-15.539063v-201.710937l68.550781 58.042969 94.128907 79.707031c17.515625 14.917969 43.265625 14.90625 60.769531-.019531l94-79.730469 68.550781-58.128906zm0 0" fill="#0069ff"/></svg>
