<?xml version="1.0" encoding="iso-8859-1"?>
<!-- Generator: Adobe Illustrator 19.0.0, SVG Export Plug-In . SVG Version: 6.00 Build 0)  -->
<svg version="1.1" id="Layer_1" xmlns="http://www.w3.org/2000/svg" xmlns:xlink="http://www.w3.org/1999/xlink" x="0px" y="0px"
	 viewBox="0 0 511.999 511.999" style="enable-background:new 0 0 511.999 511.999;" xml:space="preserve">
<circle style="fill:#fff;" cx="255.997" cy="255.997" r="167.991"/>
<g>
	<path style="fill:#444;" d="M255.999,0c-7.663,0-13.877,6.213-13.877,13.877s6.214,13.877,13.877,13.877
		c57.945,0,110.905,21.716,151.199,57.422l-32.782,32.781c-32.95-28.356-74.49-43.824-118.416-43.824
		c-45.157,0-86.517,16.548-118.35,43.892L95.044,75.42c-0.074-0.074-0.155-0.136-0.23-0.208c-0.072-0.075-0.135-0.157-0.208-0.23
		c-5.42-5.419-14.204-5.419-19.626,0C26.628,123.334,0,187.622,0,255.999c0,141.159,114.842,255.999,255.999,255.999
		c68.38,0,132.668-26.628,181.02-74.981s74.98-112.64,74.98-181.018C512,114.842,397.158,0,255.999,0z M365.043,147.093
		c5.415,5.422,14.2,5.429,19.624,0.011c0.402-0.402,0.766-0.828,1.109-1.264c0.029-0.029,0.061-0.053,0.09-0.082l40.958-40.957
		c32.834,37.053,53.823,84.82,56.987,137.322h-15.439c-7.663,0-13.877,6.213-13.877,13.877s6.214,13.877,13.877,13.877h15.445
		c-3.047,51.144-22.905,99.081-56.914,137.401l-32.929-32.929c27.344-31.833,43.892-73.192,43.892-118.35
		c0-7.664-6.214-13.877-13.877-13.877s-13.877,6.213-13.877,13.877c0,84.978-69.135,154.114-154.114,154.114
		s-154.114-69.135-154.114-154.114s69.135-154.114,154.114-154.114C297.201,101.887,335.926,117.942,365.043,147.093z
		 M255.999,453.157c-7.663,0-13.877,6.213-13.877,13.877v16.777c-52.502-3.165-100.27-24.154-137.322-56.987l32.85-32.849
		c31.833,27.344,73.192,43.892,118.35,43.892s86.517-16.548,118.35-43.892l32.929,32.929
		c-38.319,34.009-86.257,53.866-137.402,56.914v-16.782C269.876,459.37,263.663,453.157,255.999,453.157z M28.188,269.876h46.47
		c3.011,39.73,18.85,75.932,43.367,104.473l-32.85,32.85C52.341,370.146,31.353,322.38,28.188,269.876z M85.096,104.722
		l32.929,32.929c-24.516,28.542-40.355,64.743-43.367,104.473H28.182C31.229,190.98,51.087,143.042,85.096,104.722z"/>
	<path style="fill:#444;" d="M343.848,215.522v-11.046c0-2.736-2.219-4.955-4.955-4.955h-1.518l4.2-19.487
		c0.577-2.675-1.125-5.312-3.801-5.889l-15.242-3.285c-2.675-0.577-5.312,1.125-5.889,3.801l-5.358,24.86h-36.153l-6.07-26.058
		c-0.523-2.244-2.523-3.831-4.826-3.831h-16.47c-2.304,0-4.305,1.587-4.826,3.831l-6.07,26.058h-36.153l-5.358-24.86
		c-0.577-2.675-3.214-4.377-5.889-3.801l-15.242,3.285c-2.675,0.577-4.377,3.214-3.801,5.889l4.2,19.487h-1.52
		c-2.736,0-4.955,2.219-4.955,4.955v11.046c0,2.736,2.219,4.955,4.955,4.955h6.035l6.26,29.045h-12.295
		c-2.736,0-4.955,2.219-4.955,4.955v11.046c0,2.736,2.219,4.955,4.955,4.955h16.81l14.62,67.839
		c0.488,2.267,2.484,3.892,4.804,3.912l16.463,0.137c2.319,0.019,4.342-1.572,4.868-3.831l15.854-68.057h18.949l15.853,68.057
		c0.526,2.259,2.549,3.851,4.868,3.831l16.462-0.137c2.319-0.019,4.314-1.644,4.804-3.912l14.62-67.839h16.809
		c2.736,0,4.955-2.219,4.955-4.955v-11.046c0-2.736-2.219-4.955-4.955-4.955H326.6l6.26-29.045h6.034
		C341.629,220.478,343.848,218.259,343.848,215.522z M295.993,270.481l-2.083,9.66l-2.249-9.66H295.993z M286.781,249.523
		l-6.766-29.045h26.756l-6.261,29.045H286.781z M260.592,249.523h-9.185l4.593-19.716L260.592,249.523z M220.34,270.481l-2.249,9.66
		l-2.083-9.66H220.34z M211.493,249.523l-6.26-29.045h26.754l-6.765,29.045H211.493z"/>
</g>
<g>
</g>
<g>
</g>
<g>
</g>
<g>
</g>
<g>
</g>
<g>
</g>
<g>
</g>
<g>
</g>
<g>
</g>
<g>
</g>
<g>
</g>
<g>
</g>
<g>
</g>
<g>
</g>
<g>
</g>
</svg>
