<?xml version="1.0" encoding="iso-8859-1"?>
<!-- Generator: Adobe Illustrator 19.0.0, SVG Export Plug-In . SVG Version: 6.00 Build 0)  -->
<svg version="1.1" id="Capa_1" xmlns="http://www.w3.org/2000/svg" xmlns:xlink="http://www.w3.org/1999/xlink" x="0px" y="0px"
	 viewBox="0 0 384 384" style="enable-background:new 0 0 384 384;" xml:space="preserve">
<polygon style="fill:#CCE4FF;" points="96,328 288,328 288,288 328,288 328,96 288,96 288,56 96,56 96,96 56,96 56,288 96,288 "/>
<path style="fill:#007AFF;" d="M272,40H112V0H0v112h40v160H0v112h112v-40h160v40h112V272h-40V112h40V0H272V40z M32,80V32h48v8v32v8
	h-8H40H32z M80,312v32v8H32v-48h8h32h8V312z M272,312H112v-40H72V112h40V72h160v40h40v160h-40V312z M352,304v48h-48v-8v-32v-8h8h32
	H352z M304,72V40v-8h48v48h-8h-32h-8V72z"/>
<g>
</g>
<g>
</g>
<g>
</g>
<g>
</g>
<g>
</g>
<g>
</g>
<g>
</g>
<g>
</g>
<g>
</g>
<g>
</g>
<g>
</g>
<g>
</g>
<g>
</g>
<g>
</g>
<g>
</g>
</svg>
