<?xml version="1.0" encoding="iso-8859-1"?>
<!-- Generator: Adobe Illustrator 18.0.0, SVG Export Plug-In . SVG Version: 6.00 Build 0)  -->
<!DOCTYPE svg PUBLIC "-//W3C//DTD SVG 1.1//EN" "http://www.w3.org/Graphics/SVG/1.1/DTD/svg11.dtd">
<svg version="1.1" id="Capa_1" xmlns="http://www.w3.org/2000/svg" xmlns:xlink="http://www.w3.org/1999/xlink" x="0px" y="0px"
	 viewBox="0 0 58 58" style="enable-background:new 0 0 58 58;" xml:space="preserve">
<g>
	<g>
		<path style="fill:#0E3260;" d="M28.792,35.406c5.327,0,9.771-3.744,10.797-8.768H18C19.035,31.651,23.473,35.406,28.792,35.406z"
			/>
	</g>
	<g>
		<path style="fill:#0E3260;" d="M28.792,51.362c5.327,0,9.771-3.744,10.797-8.768H18C19.035,47.607,23.473,51.362,28.792,51.362z"
			/>
	</g>
	<g>
		<polygon style="fill:#13649B;" points="1,12.044 1,27.089 57,27.067 57,12 44,0 14,0 1,12 		"/>
	</g>
	<path style="fill:#209AED;" d="M38.797,12.012C37.866,16.571,33.833,20,29,20c-4.826,0-8.853-3.452-9.792-8l-18.17,0.012
		C1.017,12.012,1,12.029,1,12.05v15.039l56-0.022V12.038C57,12.017,56.983,12,56.962,12L38.797,12.012z"/>
	<path style="fill:#1081E0;" d="M38.797,27.012C37.866,31.571,33.833,35,29,35c-4.826,0-8.853-3.419-9.792-7.968L1,27.044V43h56V27
		L38.797,27.012z"/>
	<path style="fill:#0F71D3;" d="M38.797,43c-0.931,4.558-4.964,8-9.797,8c-4.826,0-8.853-3.452-9.792-8H1v15l56-0.022V43H38.797z"/>
</g>
<g>
</g>
<g>
</g>
<g>
</g>
<g>
</g>
<g>
</g>
<g>
</g>
<g>
</g>
<g>
</g>
<g>
</g>
<g>
</g>
<g>
</g>
<g>
</g>
<g>
</g>
<g>
</g>
<g>
</g>
</svg>
