<?xml version="1.0" encoding="iso-8859-1"?>
<!-- Generator: Adobe Illustrator 19.0.0, SVG Export Plug-In . SVG Version: 6.00 Build 0)  -->
<svg version="1.1" id="Capa_1" xmlns="http://www.w3.org/2000/svg" xmlns:xlink="http://www.w3.org/1999/xlink" x="0px" y="0px"
	 viewBox="0 0 511.993 511.993" style="enable-background:new 0 0 511.993 511.993;" xml:space="preserve">
<linearGradient id="SVGID_1_" gradientUnits="userSpaceOnUse" x1="69.654" y1="448.2119" x2="416.1364" y2="101.7296" gradientTransform="matrix(1.0449 0 0 -1.0449 2.1993 543.3086)">
	<stop  offset="0" style="stop-color:#00E8F2"/>
	<stop  offset="1" style="stop-color:#006EF5"/>
</linearGradient>
<circle style="fill:url(#SVGID_1_);" cx="255.996" cy="255.996" r="255.996"/>
<linearGradient id="SVGID_2_" gradientUnits="userSpaceOnUse" x1="76.5652" y1="274.9707" x2="361.2752" y2="274.9707" gradientTransform="matrix(1.0449 0 0 -1.0449 2.1993 543.3086)">
	<stop  offset="0" style="stop-color:#5262E6"/>
	<stop  offset="1" style="stop-color:#0021B5"/>
</linearGradient>
<circle style="fill:url(#SVGID_2_);" cx="256.017" cy="255.996" r="210.544"/>
<linearGradient id="SVGID_3_" gradientUnits="userSpaceOnUse" x1="76.5652" y1="246.5902" x2="361.2752" y2="246.5902" gradientTransform="matrix(1.0449 0 0 -1.0449 2.1993 543.3086)">
	<stop  offset="0" style="stop-color:#FFFFFF"/>
	<stop  offset="1" style="stop-color:#C8C6CC"/>
</linearGradient>
<path style="fill:url(#SVGID_3_);" d="M305.909,332.238h-23.428v-27.449c27.892-9.647,50.051-34.124,59.285-65.31
	c10.96-0.006,19.842-10.054,19.842-22.447c0-10.825-6.777-19.857-15.794-21.975c-5.238-50.837-43.433-90.3-89.799-90.3
	s-84.56,39.463-89.799,90.3c-9.017,2.118-15.794,11.15-15.794,21.975c0,12.393,8.883,22.441,19.842,22.447
	c9.234,31.188,31.392,55.663,59.285,65.31v27.449h-23.428c-46.742,0-85.227,37.126-87.44,83.345
	c36.869,31.757,84.858,50.961,137.335,50.961s100.467-19.204,137.335-50.961C391.136,369.364,352.651,332.238,305.909,332.238z"/>
<linearGradient id="SVGID_4_" gradientUnits="userSpaceOnUse" x1="22.3361" y1="403.6508" x2="307.0461" y2="57.1608" gradientTransform="matrix(1.0449 0 0 -1.0449 2.1993 543.3086)">
	<stop  offset="0" style="stop-color:#00E8F2"/>
	<stop  offset="1" style="stop-color:#006EF5"/>
</linearGradient>
<path style="fill:url(#SVGID_4_);" d="M309.08,332.317c-15.135,16.73-33.4,26.507-53.065,26.507s-37.93-9.777-53.065-26.507
	c-45.298,1.636-82.107,38.099-84.27,83.266c36.869,31.757,84.858,50.961,137.335,50.961s100.467-19.204,137.335-50.961
	C391.186,370.415,354.377,333.953,309.08,332.317z"/>
<g>
</g>
<g>
</g>
<g>
</g>
<g>
</g>
<g>
</g>
<g>
</g>
<g>
</g>
<g>
</g>
<g>
</g>
<g>
</g>
<g>
</g>
<g>
</g>
<g>
</g>
<g>
</g>
<g>
</g>
</svg>
