<?xml version="1.0" encoding="iso-8859-1"?>
<!-- Generator: Adobe Illustrator 19.0.0, SVG Export Plug-In . SVG Version: 6.00 Build 0)  -->
<svg version="1.1" id="Capa_1" xmlns="http://www.w3.org/2000/svg" xmlns:xlink="http://www.w3.org/1999/xlink" x="0px" y="0px"
	 viewBox="0 0 512 512" style="enable-background:new 0 0 512 512;" xml:space="preserve">
<path style="fill:#2EDDFD;" d="M426,0H161.24c-3.978,0-7.793,1.58-10.606,4.394l-75.24,75.239C72.581,82.446,71,86.262,71,90.24V497
	c0,8.284,6.716,15,15,15h340c8.284,0,15-6.716,15-15V15C441,6.716,434.284,0,426,0z"/>
<path style="fill:#29AFE0;" d="M426,0H256v512h170c8.284,0,15-6.716,15-15V15C441,6.716,434.284,0,426,0z"/>
<g>
	<path style="fill:#F1F6F5;" d="M131,341c0,8.284,6.716,15,15,15h220c8.284,0,15-6.716,15-15s-6.716-15-15-15H146
		C137.716,326,131,332.716,131,341z"/>
	<path style="fill:#F1F6F5;" d="M131,266c0,8.284,6.716,15,15,15h80c8.284,0,15-6.716,15-15s-6.716-15-15-15h-80
		C137.716,251,131,257.716,131,266z"/>
</g>
<g>
	<path style="fill:#D4E1DC;" d="M366,326H256v30h110c8.284,0,15-6.716,15-15S374.284,326,366,326z"/>
	<path style="fill:#D4E1DC;" d="M366,401h-80c-8.284,0-15,6.716-15,15s6.716,15,15,15h80c8.284,0,15-6.716,15-15
		S374.284,401,366,401z"/>
</g>
<g>
</g>
<g>
</g>
<g>
</g>
<g>
</g>
<g>
</g>
<g>
</g>
<g>
</g>
<g>
</g>
<g>
</g>
<g>
</g>
<g>
</g>
<g>
</g>
<g>
</g>
<g>
</g>
<g>
</g>
</svg>
